<?xml version="1.0" standalone="no"?>
<!DOCTYPE svg PUBLIC "-//W3C//DTD SVG 20010904//EN"
 "http://www.w3.org/TR/2001/REC-SVG-20010904/DTD/svg10.dtd">
<svg version="1.0" xmlns="http://www.w3.org/2000/svg"
 width="200.000000pt" height="200.000000pt" viewBox="0 0 200.000000 200.000000"
 preserveAspectRatio="xMidYMid meet">
<metadata>
Created by potrace 1.11, written by Peter Selinger 2001-2013
</metadata>
<g transform="translate(0.000000,200.000000) scale(0.100000,-0.100000)"
fill="#000000" stroke="none">
<path d="M455 1176 c-40 -17 -55 -37 -62 -80 -5 -33 -1 -40 57 -100 74 -77 76
-102 7 -93 -23 2 -50 8 -59 12 -16 6 -18 1 -18 -38 0 -45 1 -46 35 -53 20 -3
63 -4 97 -2 53 4 65 9 89 36 47 53 40 86 -31 154 -88 84 -85 88 65 88 69 0
125 -3 125 -7 0 -3 -29 -62 -65 -129 -36 -68 -65 -128 -65 -134 0 -7 20 -10
58 -8 l57 3 23 48 23 48 67 -3 66 -3 16 -45 16 -45 57 -3 c31 -2 57 1 57 5 0
4 -28 85 -62 180 -59 162 -65 172 -92 177 -59 12 -430 6 -461 -8z m434 -127
c6 -18 11 -34 11 -35 0 -2 -16 -4 -35 -4 l-35 0 17 35 c21 43 28 44 42 4z"/>
<path d="M985 1163 c4 -10 32 -89 62 -175 l55 -158 67 0 67 0 34 70 34 69 145
3 146 3 3 33 3 32 -125 0 c-133 0 -142 4 -112 45 12 17 28 19 122 20 l109 0 3
38 3 38 -157 -3 -157 -3 -49 -110 c-27 -60 -53 -114 -57 -118 -4 -4 -24 45
-43 110 l-35 118 -63 3 c-57 3 -62 1 -55 -15z"/>
<path d="M1295 881 c3 -5 -1 -16 -10 -24 -13 -13 -12 -15 5 -20 12 -3 21 1 23
12 4 14 5 14 6 -1 2 -28 21 -21 21 8 0 19 -4 25 -15 20 -8 -3 -15 -1 -15 4 0
6 -5 10 -11 10 -5 0 -8 -4 -4 -9z"/>
<path d="M1370 860 l0 -30 115 0 115 0 0 30 0 30 -115 0 -115 0 0 -30z"/>
</g>
</svg>
