<?xml version="1.0" encoding="utf-8"?>
<!-- Generator: Adobe Illustrator 19.2.1, SVG Export Plug-In . SVG Version: 6.00 Build 0)  -->
<svg version="1.1" id="layer" xmlns="http://www.w3.org/2000/svg" xmlns:xlink="http://www.w3.org/1999/xlink" x="0px" y="0px"
	 viewBox="0 0 652 652" style="enable-background:new 0 0 652 652;" xml:space="preserve">
<style type="text/css">
	.st0{fill:#FF7700;}
	.st1{fill:#FFFFFF;}
</style>
<circle class="st0" cx="81.8" cy="318.8" r="61.2"/>
<path class="st1" d="M54,307.3c-4.4,0-8.3,3.6-8.3,7.9v29.5c0,4.4,3.9,7.9,8.3,7.9s8.3-3.6,8.3-7.9v-29.5
	C62.4,310.8,58.4,307.3,54,307.3z M108.1,278.7c-4.9,0-8.8,4-8.8,8.9v57c0,4.9,3.9,8.9,8.8,8.9c4.9,0,8.8-4,8.8-8.9v-57
	C116.9,282.7,112.9,278.7,108.1,278.7z M80.8,295.1c-4.3,0-7.4,3.4-7.4,7.7v43.1c0,4.3,3.1,7.7,7.4,7.7s7.4-3.4,7.4-7.7v-43.1
	C88.2,298.5,85,295.1,80.8,295.1z"/>
<path d="M218.5,330.5c-4.9,1.7-13.3,2.6-18.9,2.6H195v-39.9c-2.7,0.4-5.2,0.9-7,1.6v-11.3c5-1.7,13.4-2.6,18.9-2.6h4.4v39.8
	c2.7-0.4,5.2-0.8,7-1.6L218.5,330.5L218.5,330.5z M195,261.6h16.4v13.5H195V261.6z M254.8,326l-3.7,2.6c-4.8,3.2-9,5.3-14.6,5.3
	c-10.8,0-16.7-6.4-16.7-17.2v-10.3c0-15.6,11.9-25.3,27.5-25.3h23.8v70h-16.4L254.8,326L254.8,326z M254.8,314.1v-19.7h-6
	c-8.2,0-12.6,3.7-12.6,11.9v7.4c0,4.1,1.8,5.9,5.9,5.9c3,0,6.7-1.8,9.7-3.7L254.8,314.1L254.8,314.1z M293.1,307.1
	c0-18.7,9.7-26.9,26.8-26.9c17.9,0,26.9,8.2,26.9,26.9c0,20-9,26.8-26.9,26.8C302.8,333.9,293.1,327.1,293.1,307.1z M330.3,307.1
	c0-9.3-3-12.7-10.5-12.7c-7.4,0-10.3,3.3-10.3,12.7c0,9.2,3,12.6,10.3,12.6C327.2,319.6,330.3,316.3,330.3,307.1z M346.4,283.5
	c5-1.7,13.4-2.6,18.9-2.6h4.4v7l3.7-2.6c4.8-3.3,9-5.3,14.6-5.3c10.8,0,16.7,6.4,16.7,17.2v10.3c0,15.6-11.9,25.3-27.5,25.3h-7.4
	v17.9h-16.4v-57.7c-2.7,0.4-5.2,0.9-7,1.6L346.4,283.5L346.4,283.5z M369.8,300v19.8h6.1c8.1,0,12.6-3.7,12.6-11.9v-7.4
	c0-4.1-1.9-5.9-6-5.9c-3,0-6.6,1.8-9.7,3.7C372.8,298.2,369.8,300,369.8,300z M443,331.9c-3.5,1.2-7.1,1.9-10.6,1.9
	c-12.1,0-20.7-6.5-20.7-20.1v-19.3h-8.2v-13.5h8.2v-13.3h16.4v13.3h13.3v13.4h-13.3v15.6c0,7.6,2.9,10.3,8.2,10.3
	c2,0,4.2-0.6,6.7-1.8L443,331.9L443,331.9z M469.5,330.5c-4.9,1.7-13.3,2.6-18.9,2.6h-4.4v-38.8c-3,0.2-4.6,0.1-7,0.1v-13.5h23.5
	v39.8c2.7-0.4,5.2-0.8,7-1.6L469.5,330.5L469.5,330.5z M446.1,261.6h16.4v13.5h-16.4V261.6z M469.3,307.1c0-18.7,9.7-26.9,26.8-26.9
	c17.9,0,26.9,8.2,26.9,26.9c0,20-9,26.8-26.9,26.8C479,333.9,469.3,327.1,469.3,307.1L469.3,307.1z M506.6,307.1
	c0-9.3-3-12.7-10.5-12.7c-7.4,0-10.3,3.3-10.3,12.7c0,9.2,3,12.6,10.3,12.6C503.5,319.6,506.6,316.3,506.6,307.1z M587.5,330.5
	c-5,1.7-13.4,2.6-18.9,2.6H564v-32.1c0-4.1-0.7-6.7-4.9-6.7c-3,0-6.7,2.3-10.1,4.5l-3,1.8v32.4h-16.4v-40c-2.7,0.4-5.2,0.9-7,1.6
	v-11.3c5-1.7,13.4-2.6,18.9-2.6h4.5v7.9l2.3-1.6c5.9-4.3,10.3-7.1,17.1-7.1c10.1,0,15,6.4,15,16.4v24.2c2.6-0.4,5.1-0.8,7-1.6
	L587.5,330.5L587.5,330.5z M587.5,330.5c-5,1.7-13.4,2.6-18.9,2.6H564v-32.1c0-4.1-0.7-6.7-4.9-6.7c-3,0-6.7,2.3-10.1,4.5l-3,1.8
	v32.4h-16.4v-40c-2.7,0.4-13.7,3-15.6,3.7v-11.3c5-1.7,22-4.7,27.5-4.7h4.5v7.9l2.3-1.6c5.9-4.3,10.3-7.1,17.1-7.1
	c10.1,0,15,6.4,15,16.4v24.2c2.6-0.4,5.1-0.8,7-1.6L587.5,330.5L587.5,330.5z M210.9,357v15.2c0,2.5-0.7,4.3-2.2,5.6
	c-1.5,1.3-3.5,1.9-5.9,1.9c-2.4,0-4.3-0.6-5.8-1.9c-1.5-1.3-2.2-3.2-2.2-5.6v-15.3h1.8v15.3c0,1.9,0.6,3.4,1.7,4.4
	c1.1,1,2.6,1.6,4.4,1.6c1.8,0,3.4-0.6,4.5-1.6c1.2-1,1.8-2.5,1.8-4.4v-15.3L210.9,357L210.9,357z M218.5,379.5h-1.8v-24.2h1.8V379.5
	z M227,358.4v4.3h3.7v1.5H227v10.9c0,1.1,0.2,1.8,0.6,2.3s0.9,0.6,1.6,0.6h0.8c0.3,0,0.6-0.1,1-0.1l0.3,1.4
	c-0.3,0.1-0.6,0.3-1.1,0.3c-0.5,0.1-0.9,0.1-1.3,0.1c-1.2,0-2.1-0.4-2.8-1.1s-1-1.9-1-3.5v-10.9h-2.9v-1.5h2.9v-4.3H227L227,358.4z
	 M237.3,357.9h-1.8v-2.6h1.8V357.9z M237.3,379.5h-1.8v-16.8h1.8V379.5z M244.4,362.7l0.2,2.8c0.6-1,1.3-1.8,2.1-2.3
	s1.9-0.8,3.2-0.8c1.3,0,2.3,0.3,3.2,0.9c0.8,0.6,1.5,1.6,1.8,2.9c0.5-1.2,1.2-2.1,2.1-2.8c0.9-0.6,2-1,3.4-1c1.8,0,3.1,0.6,4.2,1.8
	s1.5,3,1.5,5.5v9.8h-1.8v-9.8c0-2-0.4-3.5-1.1-4.4c-0.7-0.8-1.8-1.3-3-1.3c-1.5,0-2.6,0.5-3.3,1.4c-0.7,0.9-1.3,2-1.5,3.5v10.6h-1.8
	v-9.8c0-2-0.4-3.5-1.1-4.3c-0.7-0.8-1.8-1.3-3-1.3c-1.3,0-2.3,0.4-3.1,1c-0.8,0.6-1.3,1.6-1.7,2.7v11.8h-1.8v-16.8L244.4,362.7
	L244.4,362.7z M282.1,379.5c-0.1-0.6-0.2-1-0.3-1.5c-0.1-0.4-0.1-0.8-0.1-1.3c-0.6,0.9-1.5,1.6-2.5,2.2c-1,0.6-2.2,0.8-3.5,0.8
	c-1.7,0-2.9-0.5-3.8-1.3c-0.9-0.8-1.4-2-1.4-3.5c0-1.6,0.6-2.8,2-3.7c1.3-0.9,3.1-1.4,5.5-1.4h3.7v-2c0-1.2-0.4-2.1-1.2-2.9
	c-0.7-0.6-1.8-1-3.2-1c-1.3,0-2.4,0.4-3.2,1c-0.8,0.6-1.3,1.5-1.3,2.4h-1.7v-0.1c-0.1-1.3,0.6-2.4,1.8-3.3c1.2-1,2.8-1.5,4.6-1.5
	c1.8,0,3.3,0.5,4.4,1.4s1.7,2.3,1.7,4.1v8.2c0,0.6,0,1.2,0.1,1.8c0.1,0.6,0.2,1.1,0.4,1.7L282.1,379.5L282.1,379.5z M276,378.2
	c1.3,0,2.5-0.3,3.5-0.9c1-0.6,1.8-1.4,2.2-2.4v-3.5H278c-1.7,0-3,0.4-4.1,1.1c-1,0.7-1.5,1.6-1.5,2.7c0,0.9,0.3,1.7,0.9,2.2
	S274.9,378.2,276,378.2L276,378.2z M292,358.4v4.3h3.7v1.5H292v10.9c0,1.1,0.2,1.8,0.6,2.3c0.4,0.5,0.9,0.6,1.6,0.6h0.8
	c0.3,0,0.6-0.1,1-0.1l0.3,1.4c-0.3,0.1-0.6,0.3-1.1,0.3c-0.5,0.1-0.9,0.1-1.3,0.1c-1.2,0-2.1-0.4-2.8-1.1c-0.6-0.7-1-1.9-1-3.5
	v-10.9h-2.9v-1.5h2.9v-4.3H292z M306.4,379.9c-2.1,0-3.9-0.7-5.3-2.3s-2.1-3.5-2.1-5.9v-0.8c0-2.4,0.6-4.4,2-6s3-2.4,5-2.4
	c2,0,3.7,0.6,4.9,1.9c1.2,1.3,1.8,3,1.8,5.2v1.6h-11.8v0.5c0,1.8,0.5,3.5,1.5,4.7c1,1.3,2.3,1.9,4,1.9c1.2,0,2.1-0.2,3-0.5
	c0.8-0.3,1.5-0.7,2.1-1.4l0.8,1.3c-0.6,0.6-1.4,1.2-2.4,1.6C308.9,379.7,307.7,379.9,306.4,379.9L306.4,379.9z M306.1,364
	c-1.4,0-2.5,0.6-3.4,1.6c-0.9,1-1.5,2.4-1.7,4v0.1h9.8v-0.5c0-1.5-0.5-2.7-1.3-3.7C308.8,364.5,307.6,364,306.1,364z M328,358.4v4.3
	h3.7v1.5H328v10.9c0,1.1,0.2,1.8,0.6,2.3s0.9,0.6,1.6,0.6h0.8c0.3,0,0.6-0.1,1-0.1l0.3,1.4c-0.3,0.1-0.6,0.3-1.1,0.3
	c-0.5,0-0.9,0.1-1.3,0.1c-1.2,0-2.1-0.4-2.8-1.1s-1-1.9-1-3.5v-10.9h-2.9v-1.5h2.9v-4.3C326,358.4,328,358.4,328,358.4z
	 M343.9,364.4l-1.4-0.1c-1.2,0-2.1,0.4-2.9,1c-0.7,0.6-1.3,1.6-1.6,2.7v11.5h-1.8v-16.8h1.7l0.3,2.8v0.2c0.5-1,1.1-1.8,1.9-2.4
	c0.8-0.6,1.8-0.8,3-0.8c0.3,0,0.5,0,0.6,0.1c0.2,0,0.4,0.1,0.6,0.1L343.9,364.4z M358,379.5c-0.1-0.6-0.2-1-0.3-1.5
	c-0.1-0.4-0.1-0.8-0.1-1.3c-0.6,0.9-1.5,1.6-2.5,2.2c-1,0.6-2.2,0.8-3.5,0.8c-1.7,0-2.9-0.5-3.8-1.3c-0.9-0.8-1.4-2-1.4-3.5
	c0-1.6,0.6-2.8,2-3.7c1.3-0.9,3.1-1.4,5.5-1.4h3.7v-2c0-1.2-0.4-2.1-1.2-2.9c-0.7-0.6-1.8-1-3.2-1c-1.3,0-2.4,0.4-3.2,1
	c-0.8,0.6-1.3,1.5-1.3,2.4H347v-0.1c-0.1-1.3,0.6-2.4,1.8-3.3c1.2-1,2.8-1.5,4.6-1.5c1.8,0,3.3,0.5,4.4,1.4c1.1,0.9,1.7,2.3,1.7,4.1
	v8.2c0,0.6,0,1.2,0.1,1.8c0.1,0.6,0.2,1.1,0.4,1.7L358,379.5L358,379.5z M351.9,378.2c1.3,0,2.5-0.3,3.5-0.9c1-0.6,1.8-1.4,2.2-2.4
	v-3.5h-3.7c-1.7,0-3,0.4-4.1,1.1c-1,0.7-1.5,1.6-1.5,2.7c0,0.9,0.3,1.7,0.9,2.2C350,377.9,350.8,378.2,351.9,378.2L351.9,378.2z
	 M364.2,371.3c0-2.7,0.6-4.8,1.7-6.5c1.1-1.6,2.7-2.4,4.7-2.4c1.2,0,2.2,0.3,3,0.7c0.8,0.5,1.6,1.2,2.1,2.1v-10h1.8v24.2h-1.7
	l-0.2-2.4c-0.6,0.9-1.3,1.6-2.1,2c-0.8,0.5-1.9,0.7-3.1,0.7c-2,0-3.6-0.7-4.7-2.2c-1.1-1.5-1.7-3.5-1.7-6L364.2,371.3L364.2,371.3z
	 M366.1,371.6c0,2,0.4,3.7,1.2,4.9c0.8,1.2,2,1.8,3.7,1.8c1.2,0,2.2-0.3,3-0.8c0.8-0.6,1.4-1.3,1.8-2.2v-7.9c-0.5-1-1-1.8-1.8-2.4
	s-1.8-0.9-3-0.9c-1.7,0-2.9,0.6-3.7,2c-0.8,1.4-1.2,3-1.2,5.3L366.1,371.6L366.1,371.6z M385.2,357.9h-1.8v-2.6h1.8V357.9z
	 M385.2,379.5h-1.8v-16.8h1.8V379.5z M392.5,362.7l0.2,3c0.6-1,1.3-1.8,2.2-2.4c0.9-0.6,2-0.8,3.2-0.8c1.8,0,3.2,0.6,4.2,1.7
	c0.9,1.1,1.4,2.9,1.4,5.2v10.3h-1.8v-10.3c0-1.9-0.4-3.3-1.1-4.1c-0.7-0.8-1.8-1.2-3-1.2c-1.3,0-2.4,0.4-3.2,1
	c-0.8,0.6-1.4,1.6-1.8,2.8v11.7h-1.8v-16.8H392.5z M408.3,371.3c0-2.7,0.6-4.8,1.8-6.5c1.1-1.6,2.8-2.4,4.8-2.4c1.2,0,2.2,0.3,3,0.7
	c0.8,0.5,1.6,1.3,2.1,2.2l0.2-2.7h1.6v16.5c0,2.1-0.6,3.9-1.8,5.1c-1.2,1.3-2.9,1.8-5,1.8c-0.8,0-1.7-0.1-2.6-0.3s-1.7-0.5-2.4-0.8
	l0.5-1.6c0.6,0.4,1.4,0.6,2.1,0.7c0.7,0.2,1.5,0.3,2.4,0.3c1.7,0,2.9-0.5,3.7-1.4c0.8-0.9,1.3-2.2,1.3-3.9v-2.1
	c-0.6,0.8-1.3,1.5-2.1,1.9c-0.8,0.5-1.8,0.6-3,0.6c-2,0-3.6-0.7-4.7-2.2c-1.1-1.5-1.8-3.5-1.8-6L408.3,371.3L408.3,371.3z
	 M410.1,371.6c0,2,0.4,3.6,1.2,4.9c0.8,1.2,2,1.8,3.7,1.8c1.2,0,2.2-0.3,3-0.8c0.8-0.6,1.4-1.3,1.8-2.3v-7.8c-0.4-1-1-1.8-1.8-2.4
	c-0.7-0.6-1.8-0.9-3-0.9c-1.7,0-2.9,0.6-3.7,2c-0.8,1.4-1.3,3.1-1.3,5.3L410.1,371.6L410.1,371.6z M441.6,379.9
	c-2.1,0-3.9-0.7-5.3-2.3s-2.1-3.5-2.1-5.9v-0.8c0-2.4,0.6-4.4,2-6s3-2.4,5-2.4c2,0,3.7,0.6,4.9,1.9c1.2,1.3,1.8,3,1.8,5.2v1.6h-11.8
	v0.5c0,1.8,0.5,3.5,1.5,4.7c1,1.3,2.3,1.9,4,1.9c1.2,0,2.1-0.2,3-0.5c0.8-0.3,1.5-0.7,2.1-1.4l0.8,1.3c-0.6,0.6-1.4,1.2-2.4,1.6
	C444.1,379.7,443,379.9,441.6,379.9L441.6,379.9z M441.4,364c-1.4,0-2.5,0.6-3.4,1.6c-0.9,1-1.5,2.4-1.7,4v0.1h9.8v-0.5
	c0-1.5-0.5-2.7-1.3-3.7C444,364.5,442.9,364,441.4,364z M457.4,369.6l4.5-6.8h2.2l-5.7,8.2l5.9,8.6h-2.2l-4.8-7.1l-4.8,7.1h-2.2
	l5.9-8.6l-5.7-8.2h2.2C452.7,362.8,457.4,369.6,457.4,369.6z M481.7,371.6c0,2.5-0.6,4.5-1.7,6c-1.1,1.5-2.7,2.2-4.7,2.2
	c-1.2,0-2.2-0.2-3-0.6c-0.9-0.5-1.6-1.1-2.1-1.9v8.7h-1.8v-23.3h1.6l0.3,2.6c0.6-0.9,1.3-1.7,2.1-2.1c0.9-0.5,1.9-0.7,3.1-0.7
	c2,0,3.6,0.8,4.7,2.4s1.7,3.8,1.7,6.5L481.7,371.6L481.7,371.6z M479.9,371.3c0-2.1-0.5-3.9-1.3-5.2c-0.8-1.3-2.1-2-3.7-2
	c-1.3,0-2.3,0.3-3,0.9c-0.7,0.6-1.4,1.4-1.8,2.3v8c0.5,0.9,1,1.7,1.8,2.2c0.8,0.6,1.8,0.8,3,0.8c1.7,0,2.9-0.6,3.7-1.8
	c0.8-1.2,1.3-2.9,1.3-4.9L479.9,371.3L479.9,371.3z M492.6,379.9c-2.1,0-3.9-0.7-5.3-2.3s-2.1-3.5-2.1-5.9v-0.8c0-2.4,0.6-4.4,2-6
	s3-2.4,5-2.4c2,0,3.7,0.6,4.9,1.9c1.2,1.3,1.8,3,1.8,5.2v1.6h-11.8v0.5c0,1.8,0.5,3.5,1.5,4.7c1,1.3,2.3,1.9,4,1.9
	c1.2,0,2.1-0.2,3-0.5c0.8-0.3,1.5-0.7,2.1-1.4l0.8,1.3c-0.6,0.6-1.4,1.2-2.4,1.6C495.1,379.7,494,379.9,492.6,379.9L492.6,379.9z
	 M492.4,364c-1.4,0-2.5,0.6-3.4,1.6c-0.9,1-1.5,2.4-1.7,4v0.1h9.8v-0.5c0-1.5-0.5-2.7-1.3-3.7C495,364.5,493.9,364,492.4,364
	L492.4,364z M510.9,364.4l-1.4-0.1c-1.2,0-2.1,0.4-2.9,1s-1.3,1.6-1.6,2.7v11.5h-1.8v-16.8h1.7l0.3,2.8v0.2c0.5-1,1.1-1.8,1.9-2.4
	c0.8-0.6,1.8-0.8,3-0.8c0.3,0,0.5,0,0.6,0.1c0.2,0,0.4,0.1,0.6,0.1L510.9,364.4L510.9,364.4z M516.6,357.9h-1.8v-2.6h1.8V357.9z
	 M516.6,379.5h-1.8v-16.8h1.8V379.5z M528.5,379.9c-2.1,0-3.9-0.7-5.3-2.3c-1.4-1.6-2.1-3.5-2.1-5.9v-0.8c0-2.4,0.6-4.4,2-6
	c1.4-1.6,3-2.4,5-2.4c2,0,3.7,0.6,4.9,1.9c1.2,1.3,1.8,3,1.8,5.2v1.6h-11.8v0.5c0,1.8,0.5,3.5,1.5,4.7c1,1.3,2.3,1.9,4,1.9
	c1.2,0,2.1-0.2,3-0.5c0.8-0.3,1.5-0.7,2.1-1.4l0.8,1.3c-0.6,0.6-1.4,1.2-2.4,1.6C531,379.7,529.9,379.9,528.5,379.9L528.5,379.9z
	 M528.3,364c-1.4,0-2.5,0.6-3.4,1.6c-0.9,1-1.5,2.4-1.7,4v0.1h9.8v-0.5c0-1.5-0.5-2.7-1.3-3.7C530.9,364.5,529.7,364,528.3,364
	L528.3,364z M540.7,362.7l0.2,3c0.6-1,1.3-1.8,2.2-2.4s2-0.8,3.2-0.8c1.8,0,3.2,0.6,4.2,1.7c0.9,1.1,1.4,2.9,1.4,5.2v10.3H550v-10.3
	c0-1.9-0.4-3.3-1.1-4.1c-0.7-0.8-1.8-1.2-3-1.2s-2.4,0.4-3.2,1c-0.8,0.6-1.4,1.6-1.8,2.8v11.7H539v-16.8
	C539,362.7,540.7,362.7,540.7,362.7z M563.4,378.3c1.2,0,2.3-0.4,3.2-1c0.9-0.7,1.4-1.7,1.4-3h1.7v0.1c0.1,1.6-0.6,2.9-1.8,3.9
	c-1.3,1-2.8,1.6-4.5,1.6c-2.3,0-4.1-0.7-5.3-2.3c-1.2-1.6-1.8-3.6-1.8-6v-0.6c0-2.4,0.6-4.4,1.8-6c1.2-1.6,3-2.4,5.3-2.4
	c1.8,0,3.4,0.6,4.6,1.7c1.2,1.1,1.8,2.5,1.8,4.3v0.1H568c0-1.4-0.5-2.4-1.4-3.2c-0.9-0.8-2-1.2-3.3-1.2c-1.8,0-3.1,0.6-4,1.9
	c-0.8,1.3-1.3,2.9-1.3,4.9v0.6c0,1.9,0.5,3.6,1.3,4.9C560.3,377.7,561.6,378.3,563.4,378.3L563.4,378.3z M580.4,379.9
	c-2.1,0-3.9-0.7-5.3-2.3c-1.4-1.6-2.1-3.5-2.1-5.9v-0.8c0-2.4,0.6-4.4,2-6c1.4-1.6,3-2.4,5-2.4c2,0,3.7,0.6,4.9,1.9
	c1.2,1.3,1.8,3,1.8,5.2v1.6h-11.8v0.5c0,1.8,0.5,3.5,1.5,4.7c1,1.3,2.3,1.9,4,1.9c1.2,0,2.1-0.2,3-0.5c0.8-0.3,1.5-0.7,2.1-1.4
	l0.8,1.3c-0.6,0.6-1.4,1.2-2.4,1.6C582.9,379.7,581.8,379.9,580.4,379.9L580.4,379.9z M580.2,364c-1.4,0-2.5,0.6-3.4,1.6
	c-0.9,1-1.5,2.4-1.7,4v0.1h9.8v-0.5c0-1.5-0.5-2.7-1.3-3.7C582.8,364.5,581.7,364,580.2,364L580.2,364z M617,289.1
	c-2.4,2.3-5.2,3.4-8.5,3.4c-3.4,0-6.3-1.2-8.7-3.5c-2.3-2.3-3.5-5.3-3.5-8.7c0-3.5,1.3-6.5,3.8-8.9c2.4-2.2,5.2-3.3,8.4-3.3
	c3.3,0,6.2,1.2,8.6,3.6c2.4,2.4,3.6,5.3,3.6,8.6C620.6,283.9,619.4,286.7,617,289.1L617,289.1z M601.3,273.3c-1.9,1.9-2.9,4.3-2.9,7
	c0,2.8,1,5.2,3,7.2c1.9,1.9,4.3,3,7.1,3s5.1-1,7.1-3c1.9-2,3-4.3,3-7.2c0-2.7-1-5.1-3-7c-1.9-2-4.3-3-7.1-3
	C605.6,270.3,603.2,271.3,601.3,273.3L601.3,273.3z M603.1,287.2v-13.5h6.6c1.1,0.1,1.9,0.3,2.7,0.7c1.2,0.6,1.8,1.8,1.8,3.2
	c0,1.1-0.3,1.9-0.9,2.5c-0.6,0.5-1.4,0.8-2.3,0.9c0.8,0.2,1.5,0.5,1.9,0.7c0.8,0.6,1.2,1.7,1.2,3v1.6c0,0.1,0.1,0.3,0.1,0.4l0.1,0.4
	h-3.3c-0.1-0.5-0.2-1-0.2-1.8c0-0.8-0.1-1.4-0.2-1.7c-0.2-0.5-0.5-0.8-1-1c-0.3-0.1-0.6-0.2-1.2-0.2l-0.7-0.1h-0.7v4.8L603.1,287.2
	L603.1,287.2z M609.5,276.4c-0.5-0.2-1.2-0.3-2-0.3h-0.8v3.9h1.4c0.8,0,1.5-0.2,1.9-0.5c0.5-0.4,0.7-0.8,0.7-1.6
	C610.7,277.2,610.2,276.7,609.5,276.4L609.5,276.4z"/>
</svg>
